<?xml version="1.0" encoding="UTF-8"?>
<svg version="1.1" xmlns="http://www.w3.org/2000/svg" width="160" height="160">
<path d="M0 0 C13.2 0 26.4 0 40 0 C40 3.3 40 6.6 40 10 C46.6 10 53.2 10 60 10 C60 13.3 60 16.6 60 20 C66.6 20 73.2 20 80 20 C80 23.3 80 26.6 80 30 C86.6 30 93.2 30 100 30 C100 33.3 100 36.6 100 40 C103.3 40 106.6 40 110 40 C110 43.3 110 46.6 110 50 C113.3 50 116.6 50 120 50 C120 56.6 120 63.2 120 70 C116.7 70 113.4 70 110 70 C110 73.3 110 76.6 110 80 C106.7 80 103.4 80 100 80 C100 83.3 100 86.6 100 90 C93.4 90 86.8 90 80 90 C80 93.3 80 96.6 80 100 C73.4 100 66.8 100 60 100 C60 103.3 60 106.6 60 110 C53.4 110 46.8 110 40 110 C40 113.3 40 116.6 40 120 C26.8 120 13.6 120 0 120 C0 113.4 0 106.8 0 100 C3.3 100 6.6 100 10 100 C10 96.7 10 93.4 10 90 C16.6 90 23.2 90 30 90 C30 86.7 30 83.4 30 80 C36.6 80 43.2 80 50 80 C50 76.7 50 73.4 50 70 C53.3 70 56.6 70 60 70 C60 63.4 60 56.8 60 50 C56.7 50 53.4 50 50 50 C50 46.7 50 43.4 50 40 C43.4 40 36.8 40 30 40 C30 36.7 30 33.4 30 30 C23.4 30 16.8 30 10 30 C10 26.7 10 23.4 10 20 C6.7 20 3.4 20 0 20 C0 13.4 0 6.8 0 0 Z " fill="#222034" transform="translate(20,20)"/>
</svg>
