<svg width="32" height="32" viewBox="0 0 32 32" fill="none" xmlns="http://www.w3.org/2000/svg">
<g clip-path="url(#clip0_18_381)">
<circle cx="16" cy="16" r="15" stroke="#FCBB15" stroke-width="2"/>
<path d="M15.9 13.4565H16.1H16.4H21.6C23.7114 13.4565 25.5 15.3382 25.5 17.7391C25.5 20.4642 25.2642 22.4634 24.8232 23.7646C24.3781 25.0779 23.7995 25.5 23.2 25.5C21.9997 25.5 21.3397 25.0965 20.8996 24.5413C20.4258 23.9436 20.1719 23.1328 19.8931 22.217L19.893 22.2166L19.8859 22.1934C19.7299 21.6826 19.5612 21.13 19.3363 20.5903L19.2081 20.2826H18.8748H13.1256H12.7923L12.6641 20.5903C12.4362 21.1372 12.2657 21.6971 12.1081 22.2141L12.1073 22.2168C12.1073 22.2168 12.1073 22.2169 12.1073 22.2169C11.8281 23.1328 11.5742 23.9435 11.1003 24.5413C10.6602 25.0965 10.0003 25.5 8.8 25.5C8.20046 25.5 7.62194 25.0779 7.17679 23.7646C6.73577 22.4634 6.5 20.4642 6.5 17.7391C6.5 15.3382 8.28857 13.4565 10.4 13.4565H15.6H15.9ZM11.3 19.4783V18.6739H12C12.5351 18.6739 12.9 18.216 12.9 17.7391C12.9 17.2623 12.5351 16.8043 12 16.8043H11.3V16C11.3 15.5239 10.9354 15.0652 10.4 15.0652C9.86463 15.0652 9.5 15.5239 9.5 16V16.8043H8.8C8.26494 16.8043 7.9 17.2623 7.9 17.7391C7.9 18.216 8.26494 18.6739 8.8 18.6739H9.5V19.4783C9.5 19.9551 9.86494 20.413 10.4 20.413C10.9351 20.413 11.3 19.9551 11.3 19.4783ZM13.6 19.5435H15.2C15.5687 19.5435 15.8566 19.3261 16 19.0349C16.1432 19.326 16.4309 19.5435 16.8 19.5435H18.4C18.8363 19.5435 19.1588 19.2396 19.2636 18.8694C19.4686 19.0189 19.7197 19.1087 20 19.1087C20.1281 19.1087 20.25 19.09 20.3643 19.0553C20.3224 19.1905 20.3 19.3331 20.3 19.4783C20.3 20.1943 20.8438 20.8478 21.6 20.8478C22.3562 20.8478 22.9 20.1943 22.9 19.4783C22.9 19.3331 22.8776 19.1904 22.8357 19.0553C22.95 19.0899 23.0719 19.1087 23.2 19.1087C23.9562 19.1087 24.5 18.4552 24.5 17.7391C24.5 17.0231 23.9562 16.3696 23.2 16.3696C23.0719 16.3696 22.95 16.3883 22.8357 16.4229C22.8776 16.2878 22.9 16.1452 22.9 16C22.9 15.2839 22.3562 14.6304 21.6 14.6304C20.8438 14.6304 20.3 15.2839 20.3 16C20.3 16.1452 20.3224 16.2878 20.3643 16.4229C20.25 16.3883 20.1281 16.3696 20 16.3696C19.2486 16.3696 18.7068 17.0149 18.7001 17.7256C18.608 17.6923 18.5074 17.6739 18.4 17.6739H16.8C16.4309 17.6739 16.1432 17.8914 16 18.1825C15.8566 17.8913 15.5687 17.6739 15.2 17.6739H13.6C13.0649 17.6739 12.7 18.1318 12.7 18.6087C12.7 19.0855 13.0649 19.5435 13.6 19.5435ZM21.6 18.1087C21.4719 18.1087 21.35 18.1274 21.2357 18.1621C21.2776 18.0269 21.3 17.8843 21.3 17.7391C21.3 17.5939 21.2776 17.4513 21.2357 17.3162C21.35 17.3508 21.4719 17.3696 21.6 17.3696C21.7281 17.3696 21.85 17.3508 21.9643 17.3162C21.9224 17.4513 21.9 17.5939 21.9 17.7391C21.9 17.8843 21.9224 18.0269 21.9643 18.1621C21.85 18.1274 21.7281 18.1087 21.6 18.1087Z" fill="#FCBB15" stroke="#1E1E1E"/>
</g>
<defs>
<clipPath id="clip0_18_381">
<rect width="32" height="32" fill="white"/>
</clipPath>
</defs>
</svg>
